<svg width="91" height="90" viewBox="0 0 91 90" fill="none" xmlns="http://www.w3.org/2000/svg">
<path fill-rule="evenodd" clip-rule="evenodd" d="M26.2866 0.379059H64.9591C80.0802 0.379059 90.2056 10.9951 90.2056 26.7853V63.232C90.2056 78.9776 80.0802 89.5892 64.9591 89.5892H26.2866C11.1654 89.5892 0.995483 78.9776 0.995483 63.232V26.7853C0.995483 10.9951 11.1654 0.379059 26.2866 0.379059ZM45.5559 31.8747C43.4595 31.8747 41.7199 30.1307 41.7199 27.9941C41.7199 25.8084 43.4595 24.0688 45.6451 24.0688C47.7862 24.0688 49.5258 25.8084 49.5258 27.9941C49.5258 30.1307 47.7862 31.8747 45.5559 31.8747ZM49.4811 61.8493C49.4811 63.9904 47.7415 65.7299 45.5559 65.7299C43.4149 65.7299 41.6753 63.9904 41.6753 61.8493V42.1339C41.6753 39.9884 43.4149 38.2086 45.5559 38.2086C47.7415 38.2086 49.4811 39.9884 49.4811 42.1339V61.8493Z" fill="#213187"/>
</svg>
