<svg width="246" height="208" viewBox="0 0 246 208" fill="none" xmlns="http://www.w3.org/2000/svg">
<path d="M3.14644 54.8307C5.88326 27.0151 28.5 5.41254 56.3722 3.3294C103.67 -0.205582 141.868 -0.241045 188.902 3.18957C217.726 5.29201 240.687 28.2456 242.949 57.0579C245.581 90.5792 246.291 119.256 243.605 153.114C241.439 180.408 219.563 201.793 192.292 204.231C143.237 208.615 104.075 208.188 55.0129 203.876C27.7821 201.483 5.63071 180.515 2.93009 153.313C-0.551389 118.246 -0.218664 89.0319 3.14644 54.8307Z" fill="#213187"/>
<path d="M33.6551 70.9448L35.7031 71.6488C37.2818 72.2461 38.5831 72.8861 39.6071 73.5688C40.6738 74.2088 41.5485 74.8915 42.2311 75.6168C42.8285 76.3848 43.2551 77.2168 43.5111 78.1128C43.7671 78.9661 43.8951 79.8835 43.8951 80.8648C43.8951 82.5715 43.5111 84.0221 42.7431 85.2168C42.0178 86.3688 41.0578 87.3288 39.8631 88.0968C38.6685 88.8221 37.3245 89.3555 35.8311 89.6968C34.3805 90.0381 32.9298 90.2088 31.4791 90.2088C29.6871 90.2088 28.1085 90.0168 26.7431 89.6328C25.3778 89.2915 24.0125 88.7795 22.6471 88.0968C21.8791 87.7555 21.4951 87.1368 21.4951 86.2408L21.4311 82.2088C21.4311 81.1421 21.9431 80.6088 22.9671 80.6088H23.9911C24.9298 80.6088 25.5058 81.0995 25.7191 82.0808L26.2311 84.7688C26.3591 85.6221 26.8071 86.1768 27.5751 86.4328C28.8551 86.9448 30.1778 87.2008 31.5431 87.2008C33.7191 87.2008 35.2978 86.8168 36.2791 86.0488C37.2605 85.2808 37.7511 84.2141 37.7511 82.8488C37.7511 81.6115 37.3245 80.6515 36.4711 79.9688C35.6178 79.2435 34.1031 78.4541 31.9271 77.6008L29.1111 76.5768C26.7218 75.5955 24.8871 74.4221 23.6071 73.0568C22.3271 71.6915 21.6871 69.9421 21.6871 67.8088C21.6871 66.1875 22.0285 64.8221 22.7111 63.7128C23.3938 62.6035 24.2898 61.6861 25.3991 60.9608C26.5085 60.2355 27.7458 59.7235 29.1111 59.4248C30.4765 59.0835 31.8631 58.9128 33.2711 58.9128C34.7645 58.9128 36.1298 59.0835 37.3671 59.4248C38.6045 59.7235 39.8418 60.1715 41.0791 60.7688C41.8898 61.1528 42.2738 61.7928 42.2311 62.6888L42.0391 66.2728C41.9965 67.2968 41.4631 67.8088 40.4391 67.8088H39.4791C38.4978 67.8088 37.9218 67.3395 37.7511 66.4008L37.3031 64.0328C37.1325 63.1368 36.6631 62.5821 35.8951 62.3688C34.9991 62.0275 34.0605 61.8568 33.0791 61.8568C31.3725 61.8568 30.0498 62.2195 29.1111 62.9448C28.2151 63.6701 27.7671 64.7155 27.7671 66.0808C27.7671 67.1048 28.1725 67.9795 28.9831 68.7048C29.4098 69.0461 30.0071 69.4088 30.7751 69.7928C31.5858 70.1768 32.5458 70.5608 33.6551 70.9448ZM64.1601 85.0248C64.6295 84.7688 65.0348 84.6408 65.3761 84.6408C65.7175 84.6408 66.0161 84.7901 66.2721 85.0888C66.8268 85.7715 66.7841 86.4541 66.1441 87.1368C65.3335 87.9901 64.3308 88.6728 63.1361 89.1848C61.9841 89.6541 60.5975 89.8888 58.9761 89.8888C56.6295 89.8888 54.7735 89.3128 53.4081 88.1608C52.0855 86.9661 51.4241 85.1101 51.4241 82.5928C51.4241 82.0381 51.4241 81.5475 51.4241 81.1208C51.4241 80.6515 51.4455 80.2035 51.4881 79.7768V65.1848C51.4881 64.1181 50.9548 63.5848 49.8881 63.5848H48.5441C47.4775 63.5848 46.9441 63.0728 46.9441 62.0488C46.9441 61.0675 47.4348 60.5128 48.4161 60.3848L50.6561 60.1288C51.5521 60.0008 52.0855 59.4888 52.2561 58.5928L53.4081 52.8328C53.5788 51.8941 54.1548 51.4248 55.1361 51.4248H56.9281C57.9521 51.4248 58.4641 51.9581 58.4641 53.0248L58.3361 58.4008C58.3361 59.4675 58.8695 60.0008 59.9361 60.0008H64.3521C65.4188 60.0008 65.9521 60.5341 65.9521 61.6008V61.9848C65.9521 63.0515 65.4188 63.5848 64.3521 63.5848H59.8721C58.8055 63.5848 58.2721 64.1181 58.2721 65.1848V81.3768C58.2721 82.9555 58.5708 84.0861 59.1681 84.7688C59.8081 85.4515 60.6188 85.7928 61.6001 85.7928C61.9415 85.7928 62.3255 85.7501 62.7521 85.6648C63.2215 85.5368 63.6908 85.3235 64.1601 85.0248ZM97.6416 84.8968C97.727 84.8115 98.0043 84.9821 98.4736 85.4088C98.9856 85.9208 98.9643 86.5608 98.4096 87.3288C97.727 88.3101 96.9803 88.9715 96.1696 89.3128C95.359 89.6968 94.399 89.8888 93.2896 89.8888C91.5403 89.8888 90.1536 89.5261 89.1296 88.8008C88.1483 88.0328 87.4656 87.0301 87.0816 85.7928C85.7163 87.1581 84.3936 88.2461 83.1136 89.0568C81.8336 89.8248 80.191 90.2088 78.1856 90.2088C75.839 90.2088 73.855 89.5688 72.2336 88.2888C70.655 87.0088 69.8656 85.1315 69.8656 82.6568C69.8656 80.9928 70.3136 79.5635 71.2096 78.3688C72.1483 77.1741 73.3003 76.1501 74.6656 75.2968C76.0736 74.4435 77.567 73.7395 79.1456 73.1848C80.7243 72.6301 82.1963 72.1608 83.5616 71.7768L86.8256 70.8168V69.1528C86.8256 66.3368 86.399 64.4168 85.5456 63.3928C84.735 62.3261 83.327 61.7928 81.3216 61.7928C81.1083 61.7928 80.895 61.7928 80.6816 61.7928C80.511 61.7928 80.319 61.8141 80.1056 61.8568C79.2523 61.8995 78.719 62.4115 78.5056 63.3928L77.9296 66.0168C77.4176 68.5768 76.1376 69.8568 74.0896 69.8568C73.2363 69.8568 72.511 69.6008 71.9136 69.0888C71.3163 68.5341 70.975 67.8301 70.8896 66.9768C71.2736 64.5875 72.5536 62.6461 74.7296 61.1528C76.9483 59.6595 79.8496 58.9128 83.4336 58.9128C86.975 58.9128 89.5563 59.7661 91.1776 61.4728C92.799 63.1795 93.6096 66.1875 93.6096 70.4968V83.3608C93.6096 85.2808 94.207 86.2408 95.4016 86.2408C95.9136 86.2408 96.383 86.0915 96.8096 85.7928C97.1083 85.5795 97.3003 85.4088 97.3856 85.2808C97.471 85.1101 97.5563 84.9821 97.6416 84.8968ZM86.8256 83.2968V73.3768C85.8016 73.6328 84.6923 73.9528 83.4976 74.3368C82.3456 74.7208 81.2576 75.2115 80.2336 75.8088C79.2096 76.4061 78.3563 77.1528 77.6736 78.0488C76.991 78.9021 76.6496 79.9475 76.6496 81.1848C76.6496 82.6355 77.0763 83.7661 77.9296 84.5768C78.8256 85.3875 79.999 85.7928 81.4496 85.7928C82.303 85.7928 83.0923 85.6221 83.8176 85.2808C84.5856 84.9395 85.5883 84.2781 86.8256 83.2968ZM117.16 85.0248C117.629 84.7688 118.035 84.6408 118.376 84.6408C118.717 84.6408 119.016 84.7901 119.272 85.0888C119.827 85.7715 119.784 86.4541 119.144 87.1368C118.333 87.9901 117.331 88.6728 116.136 89.1848C114.984 89.6541 113.597 89.8888 111.976 89.8888C109.629 89.8888 107.773 89.3128 106.408 88.1608C105.085 86.9661 104.424 85.1101 104.424 82.5928C104.424 82.0381 104.424 81.5475 104.424 81.1208C104.424 80.6515 104.445 80.2035 104.488 79.7768V65.1848C104.488 64.1181 103.955 63.5848 102.888 63.5848H101.544C100.477 63.5848 99.9441 63.0728 99.9441 62.0488C99.9441 61.0675 100.435 60.5128 101.416 60.3848L103.656 60.1288C104.552 60.0008 105.085 59.4888 105.256 58.5928L106.408 52.8328C106.579 51.8941 107.155 51.4248 108.136 51.4248H109.928C110.952 51.4248 111.464 51.9581 111.464 53.0248L111.336 58.4008C111.336 59.4675 111.869 60.0008 112.936 60.0008H117.352C118.419 60.0008 118.952 60.5341 118.952 61.6008V61.9848C118.952 63.0515 118.419 63.5848 117.352 63.5848H112.872C111.805 63.5848 111.272 64.1181 111.272 65.1848V81.3768C111.272 82.9555 111.571 84.0861 112.168 84.7688C112.808 85.4515 113.619 85.7928 114.6 85.7928C114.941 85.7928 115.325 85.7501 115.752 85.6648C116.221 85.5368 116.691 85.3235 117.16 85.0248ZM135.218 70.9448L137.266 71.6488C138.844 72.2461 140.146 72.8861 141.17 73.5688C142.236 74.2088 143.111 74.8915 143.794 75.6168C144.391 76.3848 144.818 77.2168 145.074 78.1128C145.33 78.9661 145.458 79.8835 145.458 80.8648C145.458 82.5715 145.074 84.0221 144.306 85.2168C143.58 86.3688 142.62 87.3288 141.426 88.0968C140.231 88.8221 138.887 89.3555 137.394 89.6968C135.943 90.0381 134.492 90.2088 133.042 90.2088C131.25 90.2088 129.671 90.0168 128.306 89.6328C126.94 89.2915 125.575 88.7795 124.21 88.0968C123.442 87.7555 123.058 87.1368 123.058 86.2408L122.994 82.2088C122.994 81.1421 123.506 80.6088 124.53 80.6088H125.554C126.492 80.6088 127.068 81.0995 127.282 82.0808L127.794 84.7688C127.922 85.6221 128.37 86.1768 129.138 86.4328C130.418 86.9448 131.74 87.2008 133.106 87.2008C135.282 87.2008 136.86 86.8168 137.842 86.0488C138.823 85.2808 139.314 84.2141 139.314 82.8488C139.314 81.6115 138.887 80.6515 138.034 79.9688C137.18 79.2435 135.666 78.4541 133.49 77.6008L130.674 76.5768C128.284 75.5955 126.45 74.4221 125.17 73.0568C123.89 71.6915 123.25 69.9421 123.25 67.8088C123.25 66.1875 123.591 64.8221 124.274 63.7128C124.956 62.6035 125.852 61.6861 126.962 60.9608C128.071 60.2355 129.308 59.7235 130.674 59.4248C132.039 59.0835 133.426 58.9128 134.834 58.9128C136.327 58.9128 137.692 59.0835 138.93 59.4248C140.167 59.7235 141.404 60.1715 142.642 60.7688C143.452 61.1528 143.836 61.7928 143.794 62.6888L143.602 66.2728C143.559 67.2968 143.026 67.8088 142.002 67.8088H141.042C140.06 67.8088 139.484 67.3395 139.314 66.4008L138.866 64.0328C138.695 63.1368 138.226 62.5821 137.458 62.3688C136.562 62.0275 135.623 61.8568 134.642 61.8568C132.935 61.8568 131.612 62.2195 130.674 62.9448C129.778 63.6701 129.33 64.7155 129.33 66.0808C129.33 67.1048 129.735 67.9795 130.546 68.7048C130.972 69.0461 131.57 69.4088 132.338 69.7928C133.148 70.1768 134.108 70.5608 135.218 70.9448Z" fill="white"/>
<path d="M155.075 122.079C156.142 122.079 156.675 122.549 156.675 123.487C156.675 124.426 156.185 124.981 155.203 125.151L152.899 125.535C152.046 125.663 151.491 126.154 151.235 127.007L141.059 162.015C140.803 162.911 140.206 163.359 139.267 163.359H139.203C138.35 163.359 137.753 162.933 137.411 162.079L127.043 131.999L116.931 162.079C116.59 162.933 115.993 163.359 115.139 163.359C114.201 163.359 113.603 162.911 113.347 162.015L102.595 126.687C102.339 125.877 101.763 125.407 100.867 125.279L99.3315 125.087C98.3501 124.959 97.8595 124.426 97.8595 123.487C97.8595 122.549 98.3928 122.079 99.4595 122.079H113.539C114.606 122.079 115.139 122.549 115.139 123.487C115.139 124.426 114.649 124.959 113.667 125.087L111.619 125.343C110.425 125.471 109.998 126.09 110.339 127.199L117.123 151.263L125.571 127.263C125.785 126.751 125.763 126.325 125.507 125.983C125.294 125.642 124.91 125.429 124.355 125.343L122.179 125.087C121.198 124.959 120.707 124.426 120.707 123.487C120.707 122.549 121.241 122.079 122.307 122.079H136.131C137.198 122.079 137.731 122.549 137.731 123.487C137.731 124.426 137.241 124.959 136.259 125.087L134.019 125.343C132.91 125.471 132.526 126.111 132.867 127.263L140.867 151.583L147.971 127.391C148.27 126.325 147.865 125.685 146.755 125.471L144.195 125.087C143.214 124.959 142.723 124.426 142.723 123.487C142.723 122.549 143.257 122.079 144.323 122.079H155.075ZM187.622 145.887C187.452 146.826 186.854 147.295 185.83 147.295H167.27C167.356 151.178 168.294 154.101 170.086 156.063C171.878 158.026 174.204 159.007 177.062 159.007C178.726 159.007 180.134 158.709 181.286 158.111C182.481 157.471 183.569 156.597 184.55 155.487C185.02 154.975 185.468 154.719 185.894 154.719C186.108 154.719 186.3 154.783 186.47 154.911C187.11 155.338 187.196 155.978 186.726 156.831C185.617 159.007 184.017 160.671 181.926 161.823C179.836 162.975 177.382 163.551 174.566 163.551C172.177 163.551 170.044 163.146 168.166 162.335C166.332 161.525 164.774 160.415 163.494 159.007C162.257 157.557 161.318 155.85 160.678 153.887C160.038 151.925 159.718 149.791 159.718 147.487C159.718 145.269 160.081 143.157 160.806 141.151C161.532 139.146 162.556 137.397 163.878 135.903C165.244 134.367 166.865 133.173 168.742 132.319C170.662 131.423 172.774 130.975 175.078 130.975C176.998 130.975 178.726 131.295 180.262 131.935C181.841 132.575 183.185 133.471 184.294 134.623C185.404 135.733 186.257 137.077 186.854 138.655C187.452 140.234 187.75 141.983 187.75 143.903C187.75 144.245 187.75 144.586 187.75 144.927C187.75 145.226 187.708 145.546 187.622 145.887ZM167.398 144.351H176.998C178.534 144.351 179.558 144.031 180.07 143.391C180.625 142.751 180.902 141.855 180.902 140.703C180.902 138.783 180.348 137.183 179.238 135.903C178.172 134.623 176.828 133.983 175.206 133.983C173.884 133.983 172.732 134.325 171.75 135.007C170.812 135.647 170.022 136.479 169.382 137.503C168.785 138.527 168.316 139.658 167.974 140.895C167.676 142.09 167.484 143.242 167.398 144.351ZM203.146 127.391V136.479C204.469 135.114 205.855 134.09 207.306 133.407C208.757 132.725 210.399 132.383 212.234 132.383C214.367 132.383 216.181 132.853 217.674 133.791C219.167 134.687 220.383 135.882 221.322 137.375C222.303 138.826 223.007 140.469 223.434 142.303C223.903 144.138 224.138 145.973 224.138 147.807C224.138 149.77 223.882 151.711 223.37 153.631C222.858 155.509 222.069 157.194 221.002 158.687C219.935 160.181 218.591 161.397 216.97 162.335C215.349 163.231 213.45 163.679 211.274 163.679C209.653 163.679 208.181 163.381 206.858 162.783C205.535 162.229 204.277 161.29 203.082 159.967H202.698L202.506 161.951C202.378 162.933 201.781 163.423 200.714 163.423L193.802 162.847C192.778 162.762 192.266 162.314 192.266 161.503C192.266 160.735 192.757 160.245 193.738 160.031L195.018 159.775C195.957 159.562 196.447 159.007 196.49 158.111V125.407C196.49 124.426 195.999 123.871 195.018 123.743L193.098 123.487C192.117 123.359 191.626 122.911 191.626 122.143C191.626 121.375 192.074 120.863 192.97 120.607L201.354 118.431C201.567 118.346 201.738 118.303 201.866 118.303C202.037 118.303 202.207 118.303 202.378 118.303C202.677 118.303 202.869 118.346 202.954 118.431C203.21 118.602 203.338 119.114 203.338 119.967L203.146 127.391ZM203.338 139.231V156.959C205.429 158.666 207.477 159.519 209.482 159.519C210.933 159.519 212.127 159.157 213.066 158.431C214.047 157.663 214.815 156.725 215.37 155.615C215.925 154.463 216.309 153.226 216.522 151.903C216.778 150.581 216.906 149.343 216.906 148.191C216.906 144.266 216.266 141.343 214.986 139.423C213.706 137.461 211.978 136.479 209.802 136.479C207.925 136.479 205.77 137.397 203.338 139.231Z" fill="white"/>
</svg>
